<svg width="25" height="24" viewBox="0 0 25 24" fill="none" xmlns="http://www.w3.org/2000/svg">
<path d="M11.8525 11.9999C11.8525 12.5522 12.3003 12.9999 12.8525 12.9999C13.4048 12.9999 13.8525 12.5522 13.8525 11.9999C13.8525 11.4477 13.4048 10.9999 12.8525 10.9999C12.3003 10.9999 11.8525 11.4477 11.8525 11.9999Z" stroke="white" stroke-width="2" stroke-linecap="round" stroke-linejoin="round"/>
<path d="M18.8525 11.9999C18.8525 12.5522 19.3003 12.9999 19.8525 12.9999C20.4048 12.9999 20.8525 12.5522 20.8525 11.9999C20.8525 11.4477 20.4048 10.9999 19.8525 10.9999C19.3003 10.9999 18.8525 11.4477 18.8525 11.9999Z" stroke="white" stroke-width="2" stroke-linecap="round" stroke-linejoin="round"/>
<path d="M4.85254 11.9999C4.85254 12.5522 5.30025 12.9999 5.85254 12.9999C6.40482 12.9999 6.85254 12.5522 6.85254 11.9999C6.85254 11.4477 6.40482 10.9999 5.85254 10.9999C5.30025 10.9999 4.85254 11.4477 4.85254 11.9999Z" stroke="white" stroke-width="2" stroke-linecap="round" stroke-linejoin="round"/>
</svg>
