<svg width="20" height="19" viewBox="0 0 20 19" fill="none" xmlns="http://www.w3.org/2000/svg">
<path fill-rule="evenodd" clip-rule="evenodd" d="M16.2491 0.934664H16.2099H3.30688C2.84883 0.934664 2.4475 0.934519 2.13238 0.962956C1.83016 0.990088 1.41549 1.05393 1.07931 1.33134C0.661898 1.67592 0.429457 2.19591 0.450924 2.73668C0.468336 3.17225 0.697285 3.52377 0.878662 3.76724C1.06757 4.02086 1.33526 4.32004 1.64068 4.66127L6.61226 10.2175C6.68219 10.2958 6.71687 10.3347 6.74095 10.3642C6.74167 10.3649 6.74225 10.3656 6.74269 10.3663C6.74284 10.3672 6.74284 10.3681 6.74298 10.3692C6.74443 10.4071 6.74472 10.4593 6.74472 10.5642V15.1985C6.74472 15.208 6.74458 15.2192 6.74443 15.2315C6.74312 15.3506 6.74051 15.598 6.8267 15.829C6.89924 16.0232 7.01705 16.1973 7.17041 16.3366C7.35294 16.5025 7.58348 16.592 7.69461 16.6349C7.70622 16.6394 7.71652 16.6435 7.72522 16.647L10.6961 17.8353C10.8339 17.8904 10.9861 17.9513 11.1203 17.9915C11.2648 18.0346 11.5022 18.0909 11.7758 18.034C12.1112 17.9644 12.4056 17.765 12.5948 17.4795C12.7494 17.2465 12.7852 17.0052 12.7988 16.8551C12.8115 16.7156 12.8115 16.5516 12.8113 16.4032V10.5643C12.8113 10.4593 12.8115 10.4072 12.8132 10.3693V10.3664C12.8138 10.3657 12.8144 10.365 12.8151 10.3643C12.8392 10.3348 12.8738 10.2959 12.9438 10.2176L17.8893 4.69034C17.8981 4.68062 17.9066 4.6709 17.9153 4.66118C18.2207 4.31993 18.4884 4.02076 18.6775 3.76715C18.8587 3.52369 19.0877 3.17212 19.1051 2.73658C19.1266 2.19582 18.8941 1.67582 18.4767 1.33125C18.1405 1.05383 17.7259 0.989996 17.4236 0.962863C17.1086 0.934425 16.7072 0.93457 16.2491 0.93457L16.2491 0.934664ZM17.3149 2.69401C17.3067 2.70562 17.2974 2.71824 17.2874 2.73173C17.1508 2.91498 16.9368 3.15553 16.5975 3.53465L11.6523 9.06188C11.6434 9.07174 11.6343 9.0819 11.625 9.09235C11.5231 9.20566 11.3949 9.34828 11.2996 9.51819C11.217 9.6656 11.1563 9.82433 11.1196 9.98931C11.0773 10.1794 11.0777 10.3713 11.0781 10.5237C11.0781 10.5376 11.0783 10.5513 11.0783 10.5645V16.1214L8.47829 15.0814V10.5645V10.5237C8.47872 10.3713 8.47916 10.1794 8.43679 9.98931C8.40009 9.82434 8.33944 9.66562 8.25688 9.51819C8.16156 9.34829 8.0333 9.20567 7.93145 9.09235C7.92216 9.0819 7.91302 9.07174 7.90417 9.06188L2.9586 3.53465C2.61938 3.15553 2.40536 2.91496 2.26885 2.73173C2.2587 2.71824 2.2497 2.70562 2.24129 2.69401C2.25551 2.69241 2.27103 2.69082 2.28786 2.68922C2.51551 2.66876 2.83746 2.66789 3.34628 2.66789H16.21C16.7188 2.66789 17.0407 2.66876 17.2684 2.68922C17.2852 2.69082 17.3007 2.69241 17.315 2.69401H17.3149Z" fill="#AAAAAA"/>
</svg>
