<svg width="17" height="16" viewBox="0 0 17 16" fill="none" xmlns="http://www.w3.org/2000/svg">
<path d="M3.94857 12.375H4.8819L10.6319 6.98441L9.69857 6.10941L3.94857 11.5V12.375ZM13.4819 6.07816L10.6486 3.45316L11.5819 2.57816C11.8375 2.33857 12.1515 2.21878 12.5239 2.21878C12.8959 2.21878 13.2097 2.33857 13.4652 2.57816L14.3986 3.45316C14.6541 3.69274 14.7875 3.98191 14.7986 4.32066C14.8097 4.65899 14.6875 4.94795 14.4319 5.18753L13.4819 6.07816ZM12.5152 7.00003L5.44857 13.625H2.61523V10.9688L9.6819 4.34378L12.5152 7.00003ZM10.1652 6.54691L9.69857 6.10941L10.6319 6.98441L10.1652 6.54691Z" fill="white"/>
</svg>
