<svg width="25" height="25" viewBox="0 0 25 25" fill="none" xmlns="http://www.w3.org/2000/svg">
<path d="M23.7979 23.7721L17.9655 17.9398C19.53 16.1411 20.4773 13.7943 20.4773 11.2294C20.4773 5.58323 15.8848 0.996094 10.244 0.996094C4.59788 0.996094 0.0107422 5.58856 0.0107422 11.2294C0.0107422 16.8702 4.6032 21.4626 10.244 21.4626C12.809 21.4626 15.1558 20.5154 16.9544 18.9509L22.7868 24.7832C22.9252 24.9216 23.1114 24.9961 23.2923 24.9961C23.4733 24.9961 23.6595 24.9269 23.7979 24.7832C24.0746 24.5065 24.0746 24.0489 23.7979 23.7721ZM1.44223 11.2294C1.44223 6.37614 5.39079 2.4329 10.2387 2.4329C15.0919 2.4329 19.0351 6.38146 19.0351 11.2294C19.0351 16.0772 15.0919 20.0311 10.2387 20.0311C5.39079 20.0311 1.44223 16.0826 1.44223 11.2294Z" fill="white"/>
</svg>
